<mxfile host="app.diagrams.net" modified="2024-05-27T14:52:34.380Z" agent="Mozilla/5.0 (Windows NT 10.0; Win64; x64) AppleWebKit/537.36 (KHTML, like Gecko) Chrome/121.0.0.0 Safari/537.36" etag="LUtNCRjgRQi6XaJVyJsv" version="24.4.9" type="device" pages="2">
  <diagram id="yHnJYyxm-RpU4TL26eLH" name="Página-4">
    <mxGraphModel dx="2261" dy="782" grid="1" gridSize="10" guides="1" tooltips="1" connect="1" arrows="1" fold="1" page="1" pageScale="1" pageWidth="827" pageHeight="1169" math="0" shadow="0">
      <root>
        <mxCell id="0" />
        <mxCell id="1" parent="0" />
        <mxCell id="QkzERsMrnzPb5NldiP09-1" value="Início" style="strokeWidth=2;html=1;shape=mxgraph.flowchart.terminator;whiteSpace=wrap;" vertex="1" parent="1">
          <mxGeometry x="370" y="10" width="100" height="60" as="geometry" />
        </mxCell>
        <mxCell id="QkzERsMrnzPb5NldiP09-2" value="" style="endArrow=classic;html=1;rounded=0;" edge="1" parent="1">
          <mxGeometry width="50" height="50" relative="1" as="geometry">
            <mxPoint x="420" y="70" as="sourcePoint" />
            <mxPoint x="420" y="100" as="targetPoint" />
          </mxGeometry>
        </mxCell>
        <mxCell id="QkzERsMrnzPb5NldiP09-4" value="Acesso a tela inicial" style="rounded=1;whiteSpace=wrap;html=1;absoluteArcSize=1;arcSize=14;strokeWidth=2;" vertex="1" parent="1">
          <mxGeometry x="385" y="100" width="70" height="70" as="geometry" />
        </mxCell>
        <mxCell id="QkzERsMrnzPb5NldiP09-5" value="" style="endArrow=classic;html=1;rounded=0;" edge="1" parent="1">
          <mxGeometry width="50" height="50" relative="1" as="geometry">
            <mxPoint x="420" y="170" as="sourcePoint" />
            <mxPoint x="420" y="200" as="targetPoint" />
          </mxGeometry>
        </mxCell>
        <mxCell id="QkzERsMrnzPb5NldiP09-6" value="O que você quer fazer ?" style="strokeWidth=2;html=1;shape=mxgraph.flowchart.decision;whiteSpace=wrap;" vertex="1" parent="1">
          <mxGeometry x="377.5" y="200" width="85" height="80" as="geometry" />
        </mxCell>
        <mxCell id="QkzERsMrnzPb5NldiP09-7" value="" style="endArrow=none;html=1;rounded=0;" edge="1" parent="1">
          <mxGeometry width="50" height="50" relative="1" as="geometry">
            <mxPoint x="420" y="320" as="sourcePoint" />
            <mxPoint x="420" y="280" as="targetPoint" />
          </mxGeometry>
        </mxCell>
        <mxCell id="QkzERsMrnzPb5NldiP09-8" value="" style="endArrow=none;html=1;rounded=0;" edge="1" parent="1">
          <mxGeometry width="50" height="50" relative="1" as="geometry">
            <mxPoint x="40" y="320" as="sourcePoint" />
            <mxPoint x="760" y="320" as="targetPoint" />
          </mxGeometry>
        </mxCell>
        <mxCell id="QkzERsMrnzPb5NldiP09-9" value="Acessar o Cadastro dos Clientes" style="rounded=1;whiteSpace=wrap;html=1;absoluteArcSize=1;arcSize=14;strokeWidth=2;" vertex="1" parent="1">
          <mxGeometry y="380" width="70" height="70" as="geometry" />
        </mxCell>
        <mxCell id="QkzERsMrnzPb5NldiP09-10" value="" style="endArrow=classic;html=1;rounded=0;" edge="1" parent="1">
          <mxGeometry width="50" height="50" relative="1" as="geometry">
            <mxPoint x="40" y="320" as="sourcePoint" />
            <mxPoint x="40" y="380" as="targetPoint" />
          </mxGeometry>
        </mxCell>
        <mxCell id="QkzERsMrnzPb5NldiP09-11" value="" style="endArrow=classic;html=1;rounded=0;" edge="1" parent="1">
          <mxGeometry width="50" height="50" relative="1" as="geometry">
            <mxPoint x="120" y="320" as="sourcePoint" />
            <mxPoint x="120" y="380" as="targetPoint" />
          </mxGeometry>
        </mxCell>
        <mxCell id="QkzERsMrnzPb5NldiP09-12" value="Acessar o Cadastro dos Fornecedores" style="rounded=1;whiteSpace=wrap;html=1;absoluteArcSize=1;arcSize=14;strokeWidth=2;" vertex="1" parent="1">
          <mxGeometry x="90" y="380" width="70" height="70" as="geometry" />
        </mxCell>
        <mxCell id="QkzERsMrnzPb5NldiP09-13" value="" style="endArrow=classic;html=1;rounded=0;entryX=0.5;entryY=0;entryDx=0;entryDy=0;" edge="1" parent="1" target="QkzERsMrnzPb5NldiP09-14">
          <mxGeometry width="50" height="50" relative="1" as="geometry">
            <mxPoint x="214.5" y="320" as="sourcePoint" />
            <mxPoint x="215" y="370" as="targetPoint" />
          </mxGeometry>
        </mxCell>
        <mxCell id="QkzERsMrnzPb5NldiP09-14" value="Acessar Cadastro da Matéria Prima" style="rounded=1;whiteSpace=wrap;html=1;absoluteArcSize=1;arcSize=14;strokeWidth=2;" vertex="1" parent="1">
          <mxGeometry x="180" y="380" width="70" height="70" as="geometry" />
        </mxCell>
        <mxCell id="QkzERsMrnzPb5NldiP09-15" value="" style="endArrow=classic;html=1;rounded=0;" edge="1" parent="1">
          <mxGeometry width="50" height="50" relative="1" as="geometry">
            <mxPoint x="304.5" y="320" as="sourcePoint" />
            <mxPoint x="304.5" y="380" as="targetPoint" />
          </mxGeometry>
        </mxCell>
        <mxCell id="QkzERsMrnzPb5NldiP09-16" value="Acessar Cadastro d" style="rounded=1;whiteSpace=wrap;html=1;absoluteArcSize=1;arcSize=14;strokeWidth=2;" vertex="1" parent="1">
          <mxGeometry x="270" y="380" width="70" height="70" as="geometry" />
        </mxCell>
      </root>
    </mxGraphModel>
  </diagram>
  <diagram id="RlcTNFzHX9zAnHr9oqyw" name="Página-2">
    <mxGraphModel dx="2261" dy="782" grid="1" gridSize="10" guides="1" tooltips="1" connect="1" arrows="1" fold="1" page="1" pageScale="1" pageWidth="827" pageHeight="1169" math="0" shadow="0">
      <root>
        <mxCell id="0" />
        <mxCell id="1" parent="0" />
        <mxCell id="bzw6ICK5HjSpVlUr4ZKX-1" value="Início" style="strokeWidth=2;html=1;shape=mxgraph.flowchart.terminator;whiteSpace=wrap;" vertex="1" parent="1">
          <mxGeometry x="364" y="10" width="100" height="60" as="geometry" />
        </mxCell>
        <mxCell id="bzw6ICK5HjSpVlUr4ZKX-3" value="" style="endArrow=classic;html=1;rounded=0;" edge="1" parent="1">
          <mxGeometry width="50" height="50" relative="1" as="geometry">
            <mxPoint x="414" y="70" as="sourcePoint" />
            <mxPoint x="414" y="110" as="targetPoint" />
          </mxGeometry>
        </mxCell>
        <mxCell id="bzw6ICK5HjSpVlUr4ZKX-4" value="O que será executado ?" style="strokeWidth=2;html=1;shape=mxgraph.flowchart.decision;whiteSpace=wrap;" vertex="1" parent="1">
          <mxGeometry x="376" y="110" width="76" height="70" as="geometry" />
        </mxCell>
        <mxCell id="bzw6ICK5HjSpVlUr4ZKX-5" value="" style="endArrow=none;html=1;rounded=0;" edge="1" parent="1">
          <mxGeometry width="50" height="50" relative="1" as="geometry">
            <mxPoint x="414" y="230" as="sourcePoint" />
            <mxPoint x="414" y="180" as="targetPoint" />
          </mxGeometry>
        </mxCell>
        <mxCell id="bzw6ICK5HjSpVlUr4ZKX-6" value="" style="endArrow=none;html=1;rounded=0;" edge="1" parent="1">
          <mxGeometry width="50" height="50" relative="1" as="geometry">
            <mxPoint x="360" y="230" as="sourcePoint" />
            <mxPoint x="480" y="230" as="targetPoint" />
          </mxGeometry>
        </mxCell>
        <mxCell id="bzw6ICK5HjSpVlUr4ZKX-7" value="" style="endArrow=classic;html=1;rounded=0;" edge="1" parent="1">
          <mxGeometry width="50" height="50" relative="1" as="geometry">
            <mxPoint x="486.5" y="230" as="sourcePoint" />
            <mxPoint x="486.5" y="270" as="targetPoint" />
          </mxGeometry>
        </mxCell>
        <mxCell id="bzw6ICK5HjSpVlUr4ZKX-8" value="Novo Cadastro de Cliente" style="rounded=1;whiteSpace=wrap;html=1;absoluteArcSize=1;arcSize=14;strokeWidth=2;" vertex="1" parent="1">
          <mxGeometry x="720" y="270" width="76" height="70" as="geometry" />
        </mxCell>
        <mxCell id="bzw6ICK5HjSpVlUr4ZKX-9" value="" style="endArrow=classic;html=1;rounded=0;" edge="1" parent="1">
          <mxGeometry width="50" height="50" relative="1" as="geometry">
            <mxPoint x="360" y="230" as="sourcePoint" />
            <mxPoint x="360" y="270" as="targetPoint" />
          </mxGeometry>
        </mxCell>
        <mxCell id="bzw6ICK5HjSpVlUr4ZKX-10" value="Alterar algo no Cadastro de Clientes" style="rounded=1;whiteSpace=wrap;html=1;absoluteArcSize=1;arcSize=14;strokeWidth=2;" vertex="1" parent="1">
          <mxGeometry x="320" y="270" width="70" height="70" as="geometry" />
        </mxCell>
        <mxCell id="bzw6ICK5HjSpVlUr4ZKX-12" value="" style="endArrow=classic;html=1;rounded=0;" edge="1" parent="1">
          <mxGeometry width="50" height="50" relative="1" as="geometry">
            <mxPoint x="360" y="340" as="sourcePoint" />
            <mxPoint x="360" y="390" as="targetPoint" />
          </mxGeometry>
        </mxCell>
        <mxCell id="bzw6ICK5HjSpVlUr4ZKX-14" value="Insere um dado de busca do cadastro" style="shape=parallelogram;html=1;strokeWidth=2;perimeter=parallelogramPerimeter;whiteSpace=wrap;rounded=1;arcSize=12;size=0.23;" vertex="1" parent="1">
          <mxGeometry x="310" y="390" width="100" height="60" as="geometry" />
        </mxCell>
        <mxCell id="bzw6ICK5HjSpVlUr4ZKX-15" value="" style="endArrow=classic;html=1;rounded=0;" edge="1" parent="1">
          <mxGeometry width="50" height="50" relative="1" as="geometry">
            <mxPoint x="360" y="450" as="sourcePoint" />
            <mxPoint x="360" y="480" as="targetPoint" />
          </mxGeometry>
        </mxCell>
        <mxCell id="bzw6ICK5HjSpVlUr4ZKX-16" value="O cadastro foi achado no sistema ?" style="strokeWidth=2;html=1;shape=mxgraph.flowchart.decision;whiteSpace=wrap;" vertex="1" parent="1">
          <mxGeometry x="315" y="480" width="90" height="80" as="geometry" />
        </mxCell>
        <mxCell id="bzw6ICK5HjSpVlUr4ZKX-17" value="Sim" style="endArrow=classic;html=1;rounded=0;" edge="1" parent="1">
          <mxGeometry width="50" height="50" relative="1" as="geometry">
            <mxPoint x="360" y="560" as="sourcePoint" />
            <mxPoint x="360" y="600" as="targetPoint" />
          </mxGeometry>
        </mxCell>
        <mxCell id="bzw6ICK5HjSpVlUr4ZKX-18" value="Não" style="endArrow=classic;html=1;rounded=0;" edge="1" parent="1">
          <mxGeometry width="50" height="50" relative="1" as="geometry">
            <mxPoint x="315" y="519.5" as="sourcePoint" />
            <mxPoint x="255" y="519.5" as="targetPoint" />
          </mxGeometry>
        </mxCell>
        <mxCell id="bzw6ICK5HjSpVlUr4ZKX-19" value="Quer criar um cadastro ?" style="strokeWidth=2;html=1;shape=mxgraph.flowchart.decision;whiteSpace=wrap;" vertex="1" parent="1">
          <mxGeometry x="180" y="482.5" width="80" height="75" as="geometry" />
        </mxCell>
        <mxCell id="bzw6ICK5HjSpVlUr4ZKX-20" value="Sim" style="endArrow=none;html=1;rounded=0;" edge="1" parent="1">
          <mxGeometry width="50" height="50" relative="1" as="geometry">
            <mxPoint x="219.5" y="480" as="sourcePoint" />
            <mxPoint x="220" y="240" as="targetPoint" />
          </mxGeometry>
        </mxCell>
        <mxCell id="bzw6ICK5HjSpVlUr4ZKX-21" value="" style="endArrow=none;html=1;rounded=0;" edge="1" parent="1">
          <mxGeometry width="50" height="50" relative="1" as="geometry">
            <mxPoint x="220" y="240" as="sourcePoint" />
            <mxPoint x="460" y="240" as="targetPoint" />
          </mxGeometry>
        </mxCell>
        <mxCell id="bzw6ICK5HjSpVlUr4ZKX-23" value="Não" style="endArrow=none;html=1;rounded=0;" edge="1" parent="1">
          <mxGeometry width="50" height="50" relative="1" as="geometry">
            <mxPoint x="240" y="500" as="sourcePoint" />
            <mxPoint x="240" y="400" as="targetPoint" />
          </mxGeometry>
        </mxCell>
        <mxCell id="bzw6ICK5HjSpVlUr4ZKX-24" value="" style="endArrow=classic;html=1;rounded=0;" edge="1" parent="1">
          <mxGeometry width="50" height="50" relative="1" as="geometry">
            <mxPoint x="240" y="400" as="sourcePoint" />
            <mxPoint x="320" y="400" as="targetPoint" />
          </mxGeometry>
        </mxCell>
        <mxCell id="bzw6ICK5HjSpVlUr4ZKX-25" value="Insere a nova alteração" style="rounded=1;whiteSpace=wrap;html=1;absoluteArcSize=1;arcSize=14;strokeWidth=2;" vertex="1" parent="1">
          <mxGeometry x="325" y="600" width="70" height="70" as="geometry" />
        </mxCell>
        <mxCell id="bzw6ICK5HjSpVlUr4ZKX-26" value="" style="endArrow=classic;html=1;rounded=0;" edge="1" parent="1">
          <mxGeometry width="50" height="50" relative="1" as="geometry">
            <mxPoint x="360" y="670" as="sourcePoint" />
            <mxPoint x="360" y="710" as="targetPoint" />
          </mxGeometry>
        </mxCell>
        <mxCell id="bzw6ICK5HjSpVlUr4ZKX-29" value="A informação é válida ?" style="strokeWidth=2;html=1;shape=mxgraph.flowchart.decision;whiteSpace=wrap;" vertex="1" parent="1">
          <mxGeometry x="317.5" y="710" width="85" height="80" as="geometry" />
        </mxCell>
        <mxCell id="bzw6ICK5HjSpVlUr4ZKX-31" value="Não" style="endArrow=classic;html=1;rounded=0;" edge="1" parent="1">
          <mxGeometry width="50" height="50" relative="1" as="geometry">
            <mxPoint x="315" y="749.5" as="sourcePoint" />
            <mxPoint x="240" y="750" as="targetPoint" />
          </mxGeometry>
        </mxCell>
        <mxCell id="bzw6ICK5HjSpVlUr4ZKX-32" value="A informação é inválida" style="rounded=1;whiteSpace=wrap;html=1;absoluteArcSize=1;arcSize=14;strokeWidth=2;" vertex="1" parent="1">
          <mxGeometry x="170" y="715" width="70" height="70" as="geometry" />
        </mxCell>
        <mxCell id="bzw6ICK5HjSpVlUr4ZKX-33" value="&quot;Informação inválida, tente novamente&quot;" style="shape=parallelogram;html=1;strokeWidth=2;perimeter=parallelogramPerimeter;whiteSpace=wrap;rounded=1;arcSize=12;size=0.23;" vertex="1" parent="1">
          <mxGeometry x="30" y="725" width="100" height="60" as="geometry" />
        </mxCell>
        <mxCell id="bzw6ICK5HjSpVlUr4ZKX-34" value="" style="endArrow=classic;html=1;rounded=0;" edge="1" parent="1" target="bzw6ICK5HjSpVlUr4ZKX-33">
          <mxGeometry width="50" height="50" relative="1" as="geometry">
            <mxPoint x="170" y="750" as="sourcePoint" />
            <mxPoint x="220" y="700" as="targetPoint" />
          </mxGeometry>
        </mxCell>
        <mxCell id="bzw6ICK5HjSpVlUr4ZKX-35" value="" style="endArrow=none;html=1;rounded=0;" edge="1" parent="1">
          <mxGeometry width="50" height="50" relative="1" as="geometry">
            <mxPoint x="80" y="720" as="sourcePoint" />
            <mxPoint x="80" y="640" as="targetPoint" />
          </mxGeometry>
        </mxCell>
        <mxCell id="bzw6ICK5HjSpVlUr4ZKX-36" value="" style="endArrow=classic;html=1;rounded=0;" edge="1" parent="1">
          <mxGeometry width="50" height="50" relative="1" as="geometry">
            <mxPoint x="80" y="640" as="sourcePoint" />
            <mxPoint x="320" y="640" as="targetPoint" />
          </mxGeometry>
        </mxCell>
        <mxCell id="bzw6ICK5HjSpVlUr4ZKX-37" value="Sim" style="endArrow=classic;html=1;rounded=0;" edge="1" parent="1">
          <mxGeometry width="50" height="50" relative="1" as="geometry">
            <mxPoint x="360" y="790" as="sourcePoint" />
            <mxPoint x="360" y="820" as="targetPoint" />
          </mxGeometry>
        </mxCell>
        <mxCell id="bzw6ICK5HjSpVlUr4ZKX-38" value="Deseja salvar as alterações ?" style="strokeWidth=2;html=1;shape=mxgraph.flowchart.decision;whiteSpace=wrap;" vertex="1" parent="1">
          <mxGeometry x="317.5" y="820" width="85" height="80" as="geometry" />
        </mxCell>
        <mxCell id="bzw6ICK5HjSpVlUr4ZKX-39" value="" style="endArrow=none;html=1;rounded=0;" edge="1" parent="1">
          <mxGeometry width="50" height="50" relative="1" as="geometry">
            <mxPoint x="320" y="860" as="sourcePoint" />
            <mxPoint x="30" y="860" as="targetPoint" />
          </mxGeometry>
        </mxCell>
        <mxCell id="bzw6ICK5HjSpVlUr4ZKX-41" value="" style="endArrow=none;html=1;rounded=0;" edge="1" parent="1">
          <mxGeometry width="50" height="50" relative="1" as="geometry">
            <mxPoint x="30" y="860" as="sourcePoint" />
            <mxPoint y="860" as="targetPoint" />
          </mxGeometry>
        </mxCell>
        <mxCell id="bzw6ICK5HjSpVlUr4ZKX-42" value="Não" style="endArrow=none;html=1;rounded=0;" edge="1" parent="1">
          <mxGeometry width="50" height="50" relative="1" as="geometry">
            <mxPoint y="860" as="sourcePoint" />
            <mxPoint y="430" as="targetPoint" />
          </mxGeometry>
        </mxCell>
        <mxCell id="bzw6ICK5HjSpVlUr4ZKX-43" value="" style="endArrow=classic;html=1;rounded=0;" edge="1" parent="1">
          <mxGeometry width="50" height="50" relative="1" as="geometry">
            <mxPoint y="430" as="sourcePoint" />
            <mxPoint x="300" y="430" as="targetPoint" />
          </mxGeometry>
        </mxCell>
        <mxCell id="bzw6ICK5HjSpVlUr4ZKX-44" value="" style="endArrow=none;html=1;rounded=0;" edge="1" parent="1">
          <mxGeometry width="50" height="50" relative="1" as="geometry">
            <mxPoint x="480" y="230" as="sourcePoint" />
            <mxPoint x="600" y="230" as="targetPoint" />
          </mxGeometry>
        </mxCell>
        <mxCell id="bzw6ICK5HjSpVlUr4ZKX-46" value="Apagar o Cadastro" style="rounded=1;whiteSpace=wrap;html=1;absoluteArcSize=1;arcSize=14;strokeWidth=2;" vertex="1" parent="1">
          <mxGeometry x="452" y="270" width="70" height="70" as="geometry" />
        </mxCell>
        <mxCell id="bzw6ICK5HjSpVlUr4ZKX-47" value="Sim" style="endArrow=classic;html=1;rounded=0;" edge="1" parent="1">
          <mxGeometry width="50" height="50" relative="1" as="geometry">
            <mxPoint x="360" y="900" as="sourcePoint" />
            <mxPoint x="360" y="940" as="targetPoint" />
          </mxGeometry>
        </mxCell>
        <mxCell id="bzw6ICK5HjSpVlUr4ZKX-48" value="Salva as alterações no sistema" style="rounded=1;whiteSpace=wrap;html=1;absoluteArcSize=1;arcSize=14;strokeWidth=2;" vertex="1" parent="1">
          <mxGeometry x="325" y="940" width="73" height="70" as="geometry" />
        </mxCell>
        <mxCell id="bzw6ICK5HjSpVlUr4ZKX-49" value="" style="endArrow=classic;html=1;rounded=0;" edge="1" parent="1">
          <mxGeometry width="50" height="50" relative="1" as="geometry">
            <mxPoint x="360" y="1010" as="sourcePoint" />
            <mxPoint x="360" y="1040" as="targetPoint" />
          </mxGeometry>
        </mxCell>
        <mxCell id="bzw6ICK5HjSpVlUr4ZKX-50" value="&quot;As informações foram salvas com sucesso&quot;" style="shape=parallelogram;html=1;strokeWidth=2;perimeter=parallelogramPerimeter;whiteSpace=wrap;rounded=1;arcSize=12;size=0.23;" vertex="1" parent="1">
          <mxGeometry x="305" y="1040" width="110" height="60" as="geometry" />
        </mxCell>
        <mxCell id="bzw6ICK5HjSpVlUr4ZKX-51" value="" style="endArrow=classic;html=1;rounded=0;" edge="1" parent="1">
          <mxGeometry width="50" height="50" relative="1" as="geometry">
            <mxPoint x="360" y="1100" as="sourcePoint" />
            <mxPoint x="360" y="1130" as="targetPoint" />
          </mxGeometry>
        </mxCell>
        <mxCell id="bzw6ICK5HjSpVlUr4ZKX-52" value="Fim" style="strokeWidth=2;html=1;shape=mxgraph.flowchart.terminator;whiteSpace=wrap;" vertex="1" parent="1">
          <mxGeometry x="310" y="1130" width="100" height="60" as="geometry" />
        </mxCell>
        <mxCell id="bzw6ICK5HjSpVlUr4ZKX-54" value="" style="endArrow=none;html=1;rounded=0;" edge="1" parent="1">
          <mxGeometry width="50" height="50" relative="1" as="geometry">
            <mxPoint x="460" y="240" as="sourcePoint" />
            <mxPoint x="590" y="240" as="targetPoint" />
          </mxGeometry>
        </mxCell>
        <mxCell id="bzw6ICK5HjSpVlUr4ZKX-56" value="Insere um dado de busca do cadastro" style="shape=parallelogram;html=1;strokeWidth=2;perimeter=parallelogramPerimeter;whiteSpace=wrap;rounded=1;arcSize=12;size=0.23;" vertex="1" parent="1">
          <mxGeometry x="437" y="370" width="100" height="60" as="geometry" />
        </mxCell>
        <mxCell id="bzw6ICK5HjSpVlUr4ZKX-57" value="" style="endArrow=classic;html=1;rounded=0;" edge="1" parent="1">
          <mxGeometry width="50" height="50" relative="1" as="geometry">
            <mxPoint x="487" y="430" as="sourcePoint" />
            <mxPoint x="487" y="460" as="targetPoint" />
          </mxGeometry>
        </mxCell>
        <mxCell id="bzw6ICK5HjSpVlUr4ZKX-75" value="" style="edgeStyle=orthogonalEdgeStyle;rounded=0;orthogonalLoop=1;jettySize=auto;html=1;" edge="1" parent="1" source="bzw6ICK5HjSpVlUr4ZKX-58" target="bzw6ICK5HjSpVlUr4ZKX-60">
          <mxGeometry relative="1" as="geometry" />
        </mxCell>
        <mxCell id="bzw6ICK5HjSpVlUr4ZKX-58" value="O cadastro foi achado no sistema ?" style="strokeWidth=2;html=1;shape=mxgraph.flowchart.decision;whiteSpace=wrap;" vertex="1" parent="1">
          <mxGeometry x="442" y="460" width="90" height="80" as="geometry" />
        </mxCell>
        <mxCell id="bzw6ICK5HjSpVlUr4ZKX-59" value="Não" style="endArrow=classic;html=1;rounded=0;" edge="1" parent="1">
          <mxGeometry width="50" height="50" relative="1" as="geometry">
            <mxPoint x="532" y="500" as="sourcePoint" />
            <mxPoint x="588" y="499.5" as="targetPoint" />
          </mxGeometry>
        </mxCell>
        <mxCell id="bzw6ICK5HjSpVlUr4ZKX-60" value="Quer criar um cadastro ?" style="strokeWidth=2;html=1;shape=mxgraph.flowchart.decision;whiteSpace=wrap;" vertex="1" parent="1">
          <mxGeometry x="590" y="462.5" width="80" height="75" as="geometry" />
        </mxCell>
        <mxCell id="bzw6ICK5HjSpVlUr4ZKX-62" value="" style="endArrow=classic;html=1;rounded=0;entryX=0.98;entryY=0.133;entryDx=0;entryDy=0;entryPerimeter=0;" edge="1" parent="1">
          <mxGeometry width="50" height="50" relative="1" as="geometry">
            <mxPoint x="632" y="382.02" as="sourcePoint" />
            <mxPoint x="537" y="380" as="targetPoint" />
          </mxGeometry>
        </mxCell>
        <mxCell id="bzw6ICK5HjSpVlUr4ZKX-63" value="" style="endArrow=classic;html=1;rounded=0;" edge="1" parent="1" target="bzw6ICK5HjSpVlUr4ZKX-56">
          <mxGeometry width="50" height="50" relative="1" as="geometry">
            <mxPoint x="490" y="340" as="sourcePoint" />
            <mxPoint x="540" y="290" as="targetPoint" />
          </mxGeometry>
        </mxCell>
        <mxCell id="bzw6ICK5HjSpVlUr4ZKX-65" value="Não" style="endArrow=none;html=1;rounded=0;" edge="1" parent="1">
          <mxGeometry width="50" height="50" relative="1" as="geometry">
            <mxPoint x="629.5" y="462.5" as="sourcePoint" />
            <mxPoint x="629.5" y="382.5" as="targetPoint" />
          </mxGeometry>
        </mxCell>
        <mxCell id="bzw6ICK5HjSpVlUr4ZKX-67" value="" style="endArrow=none;html=1;rounded=0;" edge="1" parent="1">
          <mxGeometry width="50" height="50" relative="1" as="geometry">
            <mxPoint x="600" y="230" as="sourcePoint" />
            <mxPoint x="760" y="230" as="targetPoint" />
          </mxGeometry>
        </mxCell>
        <mxCell id="bzw6ICK5HjSpVlUr4ZKX-68" value="" style="endArrow=classic;html=1;rounded=0;entryX=0.5;entryY=0;entryDx=0;entryDy=0;" edge="1" parent="1" target="bzw6ICK5HjSpVlUr4ZKX-8">
          <mxGeometry width="50" height="50" relative="1" as="geometry">
            <mxPoint x="760" y="230" as="sourcePoint" />
            <mxPoint x="810" y="180" as="targetPoint" />
          </mxGeometry>
        </mxCell>
        <mxCell id="bzw6ICK5HjSpVlUr4ZKX-69" value="" style="endArrow=none;html=1;rounded=0;" edge="1" parent="1">
          <mxGeometry width="50" height="50" relative="1" as="geometry">
            <mxPoint x="590" y="240" as="sourcePoint" />
            <mxPoint x="730" y="240" as="targetPoint" />
          </mxGeometry>
        </mxCell>
        <mxCell id="bzw6ICK5HjSpVlUr4ZKX-70" value="" style="endArrow=classic;html=1;rounded=0;entryX=0.132;entryY=-0.057;entryDx=0;entryDy=0;entryPerimeter=0;" edge="1" parent="1" target="bzw6ICK5HjSpVlUr4ZKX-8">
          <mxGeometry width="50" height="50" relative="1" as="geometry">
            <mxPoint x="730" y="240" as="sourcePoint" />
            <mxPoint x="780" y="190" as="targetPoint" />
          </mxGeometry>
        </mxCell>
        <mxCell id="bzw6ICK5HjSpVlUr4ZKX-71" value="Sim" style="endArrow=none;html=1;rounded=0;" edge="1" parent="1">
          <mxGeometry width="50" height="50" relative="1" as="geometry">
            <mxPoint x="650" y="480" as="sourcePoint" />
            <mxPoint x="650" y="300" as="targetPoint" />
          </mxGeometry>
        </mxCell>
        <mxCell id="bzw6ICK5HjSpVlUr4ZKX-72" value="" style="endArrow=classic;html=1;rounded=0;entryX=-0.039;entryY=0.4;entryDx=0;entryDy=0;entryPerimeter=0;" edge="1" parent="1" target="bzw6ICK5HjSpVlUr4ZKX-8">
          <mxGeometry width="50" height="50" relative="1" as="geometry">
            <mxPoint x="650" y="300" as="sourcePoint" />
            <mxPoint x="700" y="250" as="targetPoint" />
          </mxGeometry>
        </mxCell>
        <mxCell id="bzw6ICK5HjSpVlUr4ZKX-74" value="Sim" style="endArrow=classic;html=1;rounded=0;" edge="1" parent="1">
          <mxGeometry width="50" height="50" relative="1" as="geometry">
            <mxPoint x="486.5" y="540" as="sourcePoint" />
            <mxPoint x="486.5" y="580" as="targetPoint" />
          </mxGeometry>
        </mxCell>
        <mxCell id="bzw6ICK5HjSpVlUr4ZKX-78" value="Tem certeza que quer continuar ?" style="strokeWidth=2;html=1;shape=mxgraph.flowchart.decision;whiteSpace=wrap;" vertex="1" parent="1">
          <mxGeometry x="446.25" y="580" width="81.5" height="80" as="geometry" />
        </mxCell>
        <mxCell id="bzw6ICK5HjSpVlUr4ZKX-79" value="" style="endArrow=none;html=1;rounded=0;" edge="1" parent="1">
          <mxGeometry width="50" height="50" relative="1" as="geometry">
            <mxPoint x="527.75" y="619.5" as="sourcePoint" />
            <mxPoint x="557.75" y="619.5" as="targetPoint" />
          </mxGeometry>
        </mxCell>
        <mxCell id="bzw6ICK5HjSpVlUr4ZKX-80" value="Não" style="endArrow=none;html=1;rounded=0;" edge="1" parent="1">
          <mxGeometry width="50" height="50" relative="1" as="geometry">
            <mxPoint x="560" y="620" as="sourcePoint" />
            <mxPoint x="560" y="160" as="targetPoint" />
          </mxGeometry>
        </mxCell>
        <mxCell id="bzw6ICK5HjSpVlUr4ZKX-81" value="" style="endArrow=classic;html=1;rounded=0;" edge="1" parent="1">
          <mxGeometry width="50" height="50" relative="1" as="geometry">
            <mxPoint x="560" y="160" as="sourcePoint" />
            <mxPoint x="460" y="160" as="targetPoint" />
          </mxGeometry>
        </mxCell>
        <mxCell id="bzw6ICK5HjSpVlUr4ZKX-82" value="Sim" style="endArrow=classic;html=1;rounded=0;" edge="1" parent="1">
          <mxGeometry width="50" height="50" relative="1" as="geometry">
            <mxPoint x="486.5" y="660" as="sourcePoint" />
            <mxPoint x="486.5" y="710" as="targetPoint" />
          </mxGeometry>
        </mxCell>
        <mxCell id="bzw6ICK5HjSpVlUr4ZKX-83" value="Apagar o Cadastro" style="rounded=1;whiteSpace=wrap;html=1;absoluteArcSize=1;arcSize=14;strokeWidth=2;" vertex="1" parent="1">
          <mxGeometry x="452" y="710" width="70" height="70" as="geometry" />
        </mxCell>
        <mxCell id="bzw6ICK5HjSpVlUr4ZKX-84" value="Quer fazer mais alguma coisa ?" style="strokeWidth=2;html=1;shape=mxgraph.flowchart.decision;whiteSpace=wrap;" vertex="1" parent="1">
          <mxGeometry x="452" y="820" width="72" height="70" as="geometry" />
        </mxCell>
        <mxCell id="bzw6ICK5HjSpVlUr4ZKX-85" value="" style="endArrow=classic;html=1;rounded=0;entryX=0.5;entryY=0;entryDx=0;entryDy=0;entryPerimeter=0;" edge="1" parent="1" target="bzw6ICK5HjSpVlUr4ZKX-84">
          <mxGeometry width="50" height="50" relative="1" as="geometry">
            <mxPoint x="490" y="780" as="sourcePoint" />
            <mxPoint x="540" y="730" as="targetPoint" />
          </mxGeometry>
        </mxCell>
        <mxCell id="bzw6ICK5HjSpVlUr4ZKX-86" value="Não" style="endArrow=classic;html=1;rounded=0;entryX=0.89;entryY=0.11;entryDx=0;entryDy=0;entryPerimeter=0;" edge="1" parent="1" target="bzw6ICK5HjSpVlUr4ZKX-52">
          <mxGeometry width="50" height="50" relative="1" as="geometry">
            <mxPoint x="487.5" y="890" as="sourcePoint" />
            <mxPoint x="487.5" y="930" as="targetPoint" />
          </mxGeometry>
        </mxCell>
        <mxCell id="bzw6ICK5HjSpVlUr4ZKX-87" value="" style="endArrow=none;html=1;rounded=0;" edge="1" parent="1">
          <mxGeometry width="50" height="50" relative="1" as="geometry">
            <mxPoint x="527.75" y="854.5" as="sourcePoint" />
            <mxPoint x="700" y="855" as="targetPoint" />
          </mxGeometry>
        </mxCell>
        <mxCell id="bzw6ICK5HjSpVlUr4ZKX-88" value="Sim" style="endArrow=none;html=1;rounded=0;" edge="1" parent="1">
          <mxGeometry width="50" height="50" relative="1" as="geometry">
            <mxPoint x="700" y="854.5" as="sourcePoint" />
            <mxPoint x="700" y="140" as="targetPoint" />
          </mxGeometry>
        </mxCell>
        <mxCell id="bzw6ICK5HjSpVlUr4ZKX-89" value="" style="endArrow=classic;html=1;rounded=0;entryX=1;entryY=0.5;entryDx=0;entryDy=0;entryPerimeter=0;" edge="1" parent="1" target="bzw6ICK5HjSpVlUr4ZKX-4">
          <mxGeometry width="50" height="50" relative="1" as="geometry">
            <mxPoint x="700" y="140" as="sourcePoint" />
            <mxPoint x="750" y="90" as="targetPoint" />
          </mxGeometry>
        </mxCell>
        <mxCell id="bzw6ICK5HjSpVlUr4ZKX-90" value="" style="endArrow=classic;html=1;rounded=0;" edge="1" parent="1">
          <mxGeometry width="50" height="50" relative="1" as="geometry">
            <mxPoint x="760" y="340" as="sourcePoint" />
            <mxPoint x="760" y="370" as="targetPoint" />
          </mxGeometry>
        </mxCell>
        <mxCell id="bzw6ICK5HjSpVlUr4ZKX-91" value="Insere Nome" style="shape=parallelogram;html=1;strokeWidth=2;perimeter=parallelogramPerimeter;whiteSpace=wrap;rounded=1;arcSize=12;size=0.23;" vertex="1" parent="1">
          <mxGeometry x="708" y="370" width="100" height="60" as="geometry" />
        </mxCell>
        <mxCell id="bzw6ICK5HjSpVlUr4ZKX-92" value="" style="endArrow=classic;html=1;rounded=0;" edge="1" parent="1">
          <mxGeometry width="50" height="50" relative="1" as="geometry">
            <mxPoint x="760" y="430" as="sourcePoint" />
            <mxPoint x="760" y="460" as="targetPoint" />
          </mxGeometry>
        </mxCell>
        <mxCell id="bzw6ICK5HjSpVlUr4ZKX-93" value="Insere o Telefone" style="shape=parallelogram;html=1;strokeWidth=2;perimeter=parallelogramPerimeter;whiteSpace=wrap;rounded=1;arcSize=12;size=0.23;" vertex="1" parent="1">
          <mxGeometry x="708" y="460" width="100" height="60" as="geometry" />
        </mxCell>
        <mxCell id="bzw6ICK5HjSpVlUr4ZKX-94" value="" style="endArrow=classic;html=1;rounded=0;" edge="1" parent="1">
          <mxGeometry width="50" height="50" relative="1" as="geometry">
            <mxPoint x="760" y="520" as="sourcePoint" />
            <mxPoint x="760" y="560" as="targetPoint" />
          </mxGeometry>
        </mxCell>
        <mxCell id="bzw6ICK5HjSpVlUr4ZKX-95" value="Insere o e-mail" style="shape=parallelogram;html=1;strokeWidth=2;perimeter=parallelogramPerimeter;whiteSpace=wrap;rounded=1;arcSize=12;size=0.23;" vertex="1" parent="1">
          <mxGeometry x="708" y="560" width="100" height="60" as="geometry" />
        </mxCell>
        <mxCell id="bzw6ICK5HjSpVlUr4ZKX-96" value="" style="endArrow=classic;html=1;rounded=0;" edge="1" parent="1">
          <mxGeometry width="50" height="50" relative="1" as="geometry">
            <mxPoint x="760" y="620" as="sourcePoint" />
            <mxPoint x="760" y="660" as="targetPoint" />
          </mxGeometry>
        </mxCell>
        <mxCell id="bzw6ICK5HjSpVlUr4ZKX-97" value="As informações são válidas ?" style="strokeWidth=2;html=1;shape=mxgraph.flowchart.decision;whiteSpace=wrap;" vertex="1" parent="1">
          <mxGeometry x="726" y="660" width="70" height="70" as="geometry" />
        </mxCell>
        <mxCell id="bzw6ICK5HjSpVlUr4ZKX-98" value="Não" style="endArrow=classic;html=1;rounded=0;" edge="1" parent="1">
          <mxGeometry width="50" height="50" relative="1" as="geometry">
            <mxPoint x="790" y="700" as="sourcePoint" />
            <mxPoint x="860" y="700" as="targetPoint" />
          </mxGeometry>
        </mxCell>
        <mxCell id="bzw6ICK5HjSpVlUr4ZKX-99" value="Nega o Registro" style="rounded=1;whiteSpace=wrap;html=1;absoluteArcSize=1;arcSize=14;strokeWidth=2;" vertex="1" parent="1">
          <mxGeometry x="860" y="660" width="70" height="75" as="geometry" />
        </mxCell>
        <mxCell id="bzw6ICK5HjSpVlUr4ZKX-100" value="" style="endArrow=classic;html=1;rounded=0;" edge="1" parent="1">
          <mxGeometry width="50" height="50" relative="1" as="geometry">
            <mxPoint x="930" y="700" as="sourcePoint" />
            <mxPoint x="990" y="700" as="targetPoint" />
          </mxGeometry>
        </mxCell>
        <mxCell id="bzw6ICK5HjSpVlUr4ZKX-101" value="&quot;Informações inválidas, tente novamente&quot;" style="shape=parallelogram;html=1;strokeWidth=2;perimeter=parallelogramPerimeter;whiteSpace=wrap;rounded=1;arcSize=12;size=0.23;" vertex="1" parent="1">
          <mxGeometry x="980" y="675" width="100" height="60" as="geometry" />
        </mxCell>
        <mxCell id="bzw6ICK5HjSpVlUr4ZKX-102" value="" style="endArrow=classic;html=1;rounded=0;" edge="1" parent="1">
          <mxGeometry width="50" height="50" relative="1" as="geometry">
            <mxPoint x="1070" y="710" as="sourcePoint" />
            <mxPoint x="1140" y="710" as="targetPoint" />
          </mxGeometry>
        </mxCell>
        <mxCell id="bzw6ICK5HjSpVlUr4ZKX-103" value="Mostra qual informação está inválida" style="rounded=1;whiteSpace=wrap;html=1;absoluteArcSize=1;arcSize=14;strokeWidth=2;" vertex="1" parent="1">
          <mxGeometry x="1140" y="670" width="70" height="75" as="geometry" />
        </mxCell>
        <mxCell id="bzw6ICK5HjSpVlUr4ZKX-105" value="" style="endArrow=classic;html=1;rounded=0;" edge="1" parent="1">
          <mxGeometry width="50" height="50" relative="1" as="geometry">
            <mxPoint x="1190" y="670" as="sourcePoint" />
            <mxPoint x="1190" y="530" as="targetPoint" />
          </mxGeometry>
        </mxCell>
        <mxCell id="bzw6ICK5HjSpVlUr4ZKX-106" value="Qual a informação inválida ?" style="strokeWidth=2;html=1;shape=mxgraph.flowchart.decision;whiteSpace=wrap;" vertex="1" parent="1">
          <mxGeometry x="1150" y="452.5" width="80" height="75" as="geometry" />
        </mxCell>
        <mxCell id="bzw6ICK5HjSpVlUr4ZKX-108" value="" style="endArrow=none;html=1;rounded=0;" edge="1" parent="1">
          <mxGeometry width="50" height="50" relative="1" as="geometry">
            <mxPoint x="1050" y="490" as="sourcePoint" />
            <mxPoint x="1150" y="490" as="targetPoint" />
          </mxGeometry>
        </mxCell>
        <mxCell id="bzw6ICK5HjSpVlUr4ZKX-109" value="" style="endArrow=none;html=1;rounded=0;" edge="1" parent="1">
          <mxGeometry width="50" height="50" relative="1" as="geometry">
            <mxPoint x="1050" y="570" as="sourcePoint" />
            <mxPoint x="1050" y="370" as="targetPoint" />
          </mxGeometry>
        </mxCell>
        <mxCell id="bzw6ICK5HjSpVlUr4ZKX-110" value="" style="endArrow=classic;html=1;rounded=0;" edge="1" parent="1">
          <mxGeometry width="50" height="50" relative="1" as="geometry">
            <mxPoint x="1050" y="570" as="sourcePoint" />
            <mxPoint x="990" y="570" as="targetPoint" />
          </mxGeometry>
        </mxCell>
        <mxCell id="bzw6ICK5HjSpVlUr4ZKX-111" value="E-mail" style="rounded=1;whiteSpace=wrap;html=1;absoluteArcSize=1;arcSize=14;strokeWidth=2;" vertex="1" parent="1">
          <mxGeometry x="920" y="540" width="70" height="70" as="geometry" />
        </mxCell>
        <mxCell id="bzw6ICK5HjSpVlUr4ZKX-112" value="" style="endArrow=classic;html=1;rounded=0;entryX=1;entryY=0.5;entryDx=0;entryDy=0;" edge="1" parent="1" target="bzw6ICK5HjSpVlUr4ZKX-95">
          <mxGeometry width="50" height="50" relative="1" as="geometry">
            <mxPoint x="920" y="590" as="sourcePoint" />
            <mxPoint x="970" y="540" as="targetPoint" />
          </mxGeometry>
        </mxCell>
        <mxCell id="bzw6ICK5HjSpVlUr4ZKX-113" value="" style="endArrow=classic;html=1;rounded=0;" edge="1" parent="1" target="bzw6ICK5HjSpVlUr4ZKX-114">
          <mxGeometry width="50" height="50" relative="1" as="geometry">
            <mxPoint x="1050" y="490" as="sourcePoint" />
            <mxPoint x="980" y="490" as="targetPoint" />
          </mxGeometry>
        </mxCell>
        <mxCell id="bzw6ICK5HjSpVlUr4ZKX-114" value="Telefone" style="rounded=1;whiteSpace=wrap;html=1;absoluteArcSize=1;arcSize=14;strokeWidth=2;" vertex="1" parent="1">
          <mxGeometry x="920" y="455" width="70" height="70" as="geometry" />
        </mxCell>
        <mxCell id="bzw6ICK5HjSpVlUr4ZKX-115" value="" style="endArrow=classic;html=1;rounded=0;" edge="1" parent="1">
          <mxGeometry width="50" height="50" relative="1" as="geometry">
            <mxPoint x="920" y="500" as="sourcePoint" />
            <mxPoint x="810" y="500" as="targetPoint" />
          </mxGeometry>
        </mxCell>
        <mxCell id="bzw6ICK5HjSpVlUr4ZKX-116" value="Nome" style="rounded=1;whiteSpace=wrap;html=1;absoluteArcSize=1;arcSize=14;strokeWidth=2;" vertex="1" parent="1">
          <mxGeometry x="920" y="350" width="70" height="70" as="geometry" />
        </mxCell>
        <mxCell id="bzw6ICK5HjSpVlUr4ZKX-117" value="" style="endArrow=classic;html=1;rounded=0;entryX=1;entryY=0.25;entryDx=0;entryDy=0;" edge="1" parent="1" target="bzw6ICK5HjSpVlUr4ZKX-116">
          <mxGeometry width="50" height="50" relative="1" as="geometry">
            <mxPoint x="1050" y="370" as="sourcePoint" />
            <mxPoint x="1100" y="320" as="targetPoint" />
          </mxGeometry>
        </mxCell>
        <mxCell id="bzw6ICK5HjSpVlUr4ZKX-118" value="" style="endArrow=classic;html=1;rounded=0;entryX=1;entryY=0.5;entryDx=0;entryDy=0;" edge="1" parent="1" target="bzw6ICK5HjSpVlUr4ZKX-91">
          <mxGeometry width="50" height="50" relative="1" as="geometry">
            <mxPoint x="920" y="380" as="sourcePoint" />
            <mxPoint x="970" y="330" as="targetPoint" />
          </mxGeometry>
        </mxCell>
        <mxCell id="bzw6ICK5HjSpVlUr4ZKX-119" value="Sim" style="endArrow=classic;html=1;rounded=0;" edge="1" parent="1">
          <mxGeometry width="50" height="50" relative="1" as="geometry">
            <mxPoint x="760" y="730" as="sourcePoint" />
            <mxPoint x="760" y="770" as="targetPoint" />
          </mxGeometry>
        </mxCell>
        <mxCell id="bzw6ICK5HjSpVlUr4ZKX-120" value="Salva no Banco de dados" style="rounded=1;whiteSpace=wrap;html=1;absoluteArcSize=1;arcSize=14;strokeWidth=2;" vertex="1" parent="1">
          <mxGeometry x="726" y="770" width="70" height="70" as="geometry" />
        </mxCell>
        <mxCell id="bzw6ICK5HjSpVlUr4ZKX-121" value="" style="endArrow=classic;html=1;rounded=0;" edge="1" parent="1">
          <mxGeometry width="50" height="50" relative="1" as="geometry">
            <mxPoint x="760" y="840" as="sourcePoint" />
            <mxPoint x="760" y="880" as="targetPoint" />
          </mxGeometry>
        </mxCell>
        <mxCell id="bzw6ICK5HjSpVlUr4ZKX-122" value="&quot;Registro salvo com sucesso&quot;" style="shape=parallelogram;html=1;strokeWidth=2;perimeter=parallelogramPerimeter;whiteSpace=wrap;rounded=1;arcSize=12;size=0.23;" vertex="1" parent="1">
          <mxGeometry x="711" y="880" width="100" height="60" as="geometry" />
        </mxCell>
        <mxCell id="bzw6ICK5HjSpVlUr4ZKX-123" value="" style="endArrow=none;html=1;rounded=0;" edge="1" parent="1">
          <mxGeometry width="50" height="50" relative="1" as="geometry">
            <mxPoint x="760" y="1150" as="sourcePoint" />
            <mxPoint x="760" y="940" as="targetPoint" />
          </mxGeometry>
        </mxCell>
        <mxCell id="bzw6ICK5HjSpVlUr4ZKX-124" value="" style="endArrow=classic;html=1;rounded=0;entryX=0.97;entryY=0.3;entryDx=0;entryDy=0;entryPerimeter=0;" edge="1" parent="1" target="bzw6ICK5HjSpVlUr4ZKX-52">
          <mxGeometry width="50" height="50" relative="1" as="geometry">
            <mxPoint x="760" y="1150" as="sourcePoint" />
            <mxPoint x="810" y="1100" as="targetPoint" />
          </mxGeometry>
        </mxCell>
      </root>
    </mxGraphModel>
  </diagram>
</mxfile>
